<?xml version="1.0" encoding="UTF-8"?>
<svg id="Layer_1" xmlns="http://www.w3.org/2000/svg" version="1.1" viewBox="0 0 100 100">
  <!-- Generator: Adobe Illustrator 29.3.1, SVG Export Plug-In . SVG Version: 2.1.0 Build 151)  -->
  <path d="M73.73,88.71c-18.35,12.44-42.69,9.86-58.25-6.26C-2.67,63.65-2.67,33.17,15.48,14.38c18.14-18.79,47.55-18.79,65.69,0,14.14,14.65,17.67,37.09,8.68,55.62l2.86,5.12c1.2-.13,2.4.46,3.02,1.58l2,3.59c.87,1.55.33,3.57-1.2,4.42l-16.21,9.7h0c-1.48.89-3.38.36-4.23-1.17l-2-3.59-.35-.95ZM92.73,77.77l-.06.04-16.15,9.66c-.34.21-.47.57-.29.89l2.03,3.64c.14.23.52.34.75.21.05-.03.1-.06.15-.09l16.11-9.64c.34-.21.47-.57.28-.89l-2-3.59c-.17-.3-.54-.4-.83-.23ZM90.4,76.18l-4.38-7.86c-3.38-5.94,2.27-4.62-7.99-23.04h0l-3.35-6c-.59-1.06-1.92-1.42-2.94-.81h0c-1.03.63-1.37,1.98-.79,3.05l2.59,4.64c.34.62.14,1.41-.45,1.77-.6.35-1.36.15-1.7-.47l-5.43-9.74c-.61-1.06-1.93-1.42-2.94-.81h0c-1.03.62-1.38,1.99-.79,3.04l5.43,9.74c.34.62.14,1.41-.45,1.77-.6.35-1.36.15-1.71-.47l-7.12-12.79c-.95-1.69-3.44-1.41-3.94.53-.14.56-.09,1.17.21,1.69l7.13,12.79c.34.62.14,1.41-.45,1.76-.6.36-1.36.15-1.71-.47l-4.15-7.46c-.94-1.68-3.43-1.41-3.94.54-.14.56-.08,1.16.21,1.69h0s5.81,10.42,5.81,10.42c.53.96.2,2.14-.69,2.68h0c-.35.21-.78.31-1.22.24l-3.99-.62c-3.14-.49-3.72,4.19-.64,4.85,4.49.96,7.47,3.3,10.9,6.15,2.63,2.18,3.88,3.28,7.27,4.27,2.07.61,3.59,1.05,5.32,4.16l1.8,3.23,14.12-8.45ZM88.33,67.29c7.6-17.28,3.99-37.68-8.94-51.07C62.23-1.57,34.4-1.57,17.24,16.22.08,34,.08,62.83,17.24,80.62c15.22,15.77,39.21,17.78,56.64,4.85l-1.55-2.78c-2.25-4.03-4.2-1.79-9.46-5.66-12.09,6.61-26.95,4.27-36.62-5.75-7.03-7.3-10.41-17.72-8.7-28.25-2.74-1.23-4.71-4.05-3.21-7.11,1.78-3.64,3.88-2.41,6.04-1.92l.88-1.69c-2.28-1.94-6.03-5.91-5.1-9.18.49-1.71,1.94-2.95,3.66-3.12,2.36-.24,3.03,1.01,3.75,2.35.39.72.81,1.49,2.16,1.44,1.48-.07,1.91-.59,2.46-1.68,1.23-2.48,3.58-3.18,5.5-2.28,1.71-.94,3.52-1.72,5.38-2.32.21-1.19.86-2.2,2.78-2.75,1.54-.43,3.2.11,4.22,1.38,8.16-.61,15.88,2.07,21.88,7.1,5.41,4.53,9.33,10.92,10.87,18.22l1.39,2.5c10.28,18.44,5.27,18.16,7.98,23.05h0s.15.25.15.25ZM60.67,75.28c-3.22-2.67-5.99-5.02-10.18-5.92-1.33-.29-2.31-.95-2.98-1.81-.89.7-1.68,1.42-2.5,2.27-.57.59-1.57.51-2.01-.35l-9.98-17.92c-1.7,1.93-4.07,1.77-6.08.41-2.12-1.45-4.23-4.54-4.32-6.96l.02-1.67c-.85.28-1.78.41-2.67.34-2.79,18.03,10.61,34.5,28.34,34.5,4.35,0,8.52-.98,12.36-2.88h0ZM46.51,65.09c-.43-3.13,1.83-6.25,5.49-5.68l2.75.43-5.17-9.28c-1.75-3.14.37-7.08,3.83-7.22-.98-1.76-1.95-3.08-1.38-5.29,1-3.84,5.78-4.81,8.12-1.75.4-.66.95-1.23,1.63-1.64h0c1.3-.78,2.84-.84,4.15-.26l-4.55-8.16c-2.73,2.42-6.02,4.05-9.5,5.46l-1.87.74c-.65.37-1.34.62-2.05.77l-.33.13c-6.14,2.3-12.38,4.63-16.31,9.99l13.1,23.51,2.1-1.74ZM70.01,36.57c1.26-1,2.87-1.25,4.34-.73-4.88-10.81-15.58-17.71-27.39-17.14.04,1.25-.34,2.5-.57,3.67-.42,2.07-1.05,4.07-1.88,6.02-.41.97.11,2.12,1.19,2.31.55.1,1.11.09,1.65,0l1.73-.69c.38-.24.74-.43,1.09-.56.31-.11.63-.18.93-.21,3.67-1.5,7.08-3.26,9.68-5.96.57-.59,1.57-.52,2.02.38l7.2,12.92ZM31.51,48.84l-2.75-4.94c-.27-.47-.21-1.04.09-1.44,3.59-5.33,8.88-8.01,14.42-10.2-1.34-1.22-1.77-3.2-1.03-4.91.75-1.75,1.33-3.61,1.71-5.5.33-1.6,1.19-4-.55-4.55-.28-.09-.59-.1-.89-.01-1.41.4-.94,1.98-1,3.48-.18,4.13-2.17,8.08-5.67,10.12-1.6.93-3.41.44-4.45-.89h0c-1.05-1.29-1.15-3.25.05-4.69.43-.51.86-.91,1.28-1.29,1.29-1.19.11-1.89-.6-1.93-.59-.03-1.25.31-1.71,1.25-.93,1.85-2.07,2.96-4.57,3.07-4.71.21-3.87-3.99-5.78-3.79-.7.07-1.3.57-1.5,1.28-.19.66.2,1.62.85,2.64,1.01,1.58,2.62,3.18,4,4.26,2.09,1.63,1.48,4.97-1.06,5.75-2.75.84-4.63-1.76-5.77.56-1.14,2.32,2.07,4.07,3.99,4.02,1.22-.04,1.51-.48,2.42-.4,1.29.12,2.27,1.33,2.15,2.69l-.03,1.49c.08,2.12,3.72,6.82,5.81,5.16.44-.36.59-.7.6-1.22h0ZM35.54,21.77c.04.1.08.21.11.31.37,1.24.04,2.63-1.33,3.89-.74.68-1.75,1.43-1.02,2.37h0c.33.41.8.55,1.29.26,2.83-1.65,4.43-5.04,4.41-8.35-1.19.42-2.34.92-3.47,1.5h0Z"/>
</svg>