<?xml version="1.0" encoding="UTF-8"?>
<svg id="Layer_1" xmlns="http://www.w3.org/2000/svg" version="1.1" viewBox="0 0 100 100">
  <!-- Generator: Adobe Illustrator 29.3.1, SVG Export Plug-In . SVG Version: 2.1.0 Build 151)  -->
  <path d="M74.95,54.22l-5.4-4.27v-4.7c0-.78-.63-1.41-1.41-1.41h-15.68l-4.09-15.27.79-.21c2.31-.62,3.85-2.8,3.65-5.19l-1.36-16.26c0-.08-.02-.17-.04-.25l-.85-3.16c-.29-1.09-.99-2.01-1.98-2.57-.98-.57-2.12-.72-3.22-.43l-19.35,5.18c-2.26.61-3.6,2.93-3,5.19l.85,3.16c.02.08.05.16.09.24l6.96,14.76c.83,1.77,2.59,2.84,4.47,2.84.42,0,.86-.05,1.28-.17l.79-.21,2.24,8.34h-9.47c-.27,0-.53.08-.76.22l-7.71,4.9h-7.82c-.78,0-1.41.63-1.41,1.41v7.83c0,.78.63,1.41,1.41,1.41h10.28l-3.29,9.02h-6.86c-.59,0-1.12.37-1.33.93L1.04,97.97c-.16.43-.09.91.17,1.29s.69.6,1.15.6h11.71c.59,0,1.12-.37,1.33-.93l5.67-15.7h6.04c.59,0,1.12-.37,1.32-.93l8.33-22.84h1.06l-1.97,5.35c-.09.24-.11.49-.06.74l2.84,15.5c.12.68.72,1.16,1.39,1.16.08,0,.17,0,.26-.02.77-.14,1.27-.88,1.13-1.64l-2.77-15.12,2.2-5.96h4.13l1.69,6.31c.17.62.72,1.04,1.36,1.04h8.74s.04,0,.06,0h11.34c.78,0,1.41-.63,1.41-1.41v-4.69l5.4-4.27c.34-.27.54-.68.54-1.11,0-.43-.2-.84-.54-1.11h0ZM26.75,8.41l19.35-5.18c.36-.1.75-.05,1.08.14.33.19.56.5.66.86l.48,1.8-22.09,5.92-.48-1.8c-.2-.76.25-1.54,1-1.74ZM35.94,28.99c-1.01.27-2.03-.2-2.47-1.15l-6.24-13.23,21.55-5.77,1.22,14.58c.09,1.04-.56,1.96-1.57,2.23l-12.49,3.35ZM45.65,29.31l2.82,10.54h-5.85l-2.43-9.07,5.46-1.46ZM13.09,97.04H4.38l10.68-29.58h8.71l-10.68,29.58ZM49.09,63.99l-1.69-6.31c-.17-.62-.72-1.04-1.36-1.04h-4.17l.74-2.01s.07,0,.1,0c2.75,0,4.98-2.24,4.98-4.98s-2.24-4.98-4.98-4.98-4.98,2.24-4.98,4.98c0,1.71.87,3.23,2.19,4.13l-1.05,2.86h-3.08c-.59,0-1.12.37-1.32.93l-8.33,22.84h-4.03l5.01-13.88c.16-.43.09-.91-.17-1.29s-.69-.6-1.15-.6h-1.85l3.63-9.95c.16-.43.09-.91-.17-1.29-.26-.38-.7-.6-1.16-.6h-10.89v-5.01h14.88c.78,0,1.41-.63,1.41-1.41s-.63-1.41-1.41-1.41h-3.21l3.62-2.3h10.86s.04,0,.06,0h7.66l.79,2.93s0,.04.02.06l4.91,18.33h-5.85ZM42.7,51.81c-1.19,0-2.16-.97-2.16-2.16s.97-2.16,2.16-2.16,2.16.97,2.16,2.16-.97,2.16-2.16,2.16ZM66.73,63.99h-8.87l-4.64-17.32h13.52v17.32ZM69.55,57.11v-3.56l2.25,1.78-2.25,1.78ZM99.04,61.33c0,.89-.72,1.61-1.61,1.61s-1.61-.72-1.61-1.61.72-1.61,1.61-1.61,1.61.72,1.61,1.61ZM93.14,49.66c0,.89-.72,1.61-1.61,1.61s-1.61-.72-1.61-1.61.72-1.61,1.61-1.61,1.61.72,1.61,1.61ZM99.04,67.34c0,.89-.72,1.61-1.61,1.61s-1.61-.72-1.61-1.61.72-1.61,1.61-1.61,1.61.72,1.61,1.61ZM99.04,55.33c0,.89-.72,1.61-1.61,1.61s-1.61-.72-1.61-1.61.72-1.61,1.61-1.61,1.61.72,1.61,1.61ZM95.82,36.01c0-.89.72-1.61,1.61-1.61s1.61.72,1.61,1.61-.72,1.61-1.61,1.61-1.61-.72-1.61-1.61ZM99.04,49.66c0,.89-.72,1.61-1.61,1.61s-1.61-.72-1.61-1.61.72-1.61,1.61-1.61,1.61.72,1.61,1.61ZM99.04,43.55c0,.89-.72,1.61-1.61,1.61s-1.61-.72-1.61-1.61.72-1.61,1.61-1.61,1.61.72,1.61,1.61ZM99.04,74.65c0,.89-.72,1.61-1.61,1.61s-1.61-.72-1.61-1.61.72-1.61,1.61-1.61,1.61.72,1.61,1.61ZM93.14,61.33c0,.89-.72,1.61-1.61,1.61s-1.61-.72-1.61-1.61.72-1.61,1.61-1.61,1.61.72,1.61,1.61ZM93.14,67.34c0,.89-.72,1.61-1.61,1.61s-1.61-.72-1.61-1.61.72-1.61,1.61-1.61,1.61.72,1.61,1.61ZM93.14,55.33c0,.89-.72,1.61-1.61,1.61s-1.61-.72-1.61-1.61.72-1.61,1.61-1.61,1.61.72,1.61,1.61ZM87.23,49.66c0,.89-.72,1.61-1.61,1.61s-1.61-.72-1.61-1.61.72-1.61,1.61-1.61,1.61.72,1.61,1.61h0ZM87.23,61.33c0,.89-.72,1.61-1.61,1.61s-1.61-.72-1.61-1.61.72-1.61,1.61-1.61,1.61.72,1.61,1.61ZM81.33,55.33c0,.89-.72,1.61-1.61,1.61s-1.61-.72-1.61-1.61.72-1.61,1.61-1.61,1.61.72,1.61,1.61ZM93.14,43.55c0,.89-.72,1.61-1.61,1.61s-1.61-.72-1.61-1.61.72-1.61,1.61-1.61,1.61.72,1.61,1.61ZM87.23,55.33c0,.89-.72,1.61-1.61,1.61s-1.61-.72-1.61-1.61.72-1.61,1.61-1.61,1.61.72,1.61,1.61Z"/>
</svg>